<?xml version="1.0" standalone="no"?>
<!DOCTYPE svg PUBLIC "-//W3C//DTD SVG 20010904//EN"
 "http://www.w3.org/TR/2001/REC-SVG-20010904/DTD/svg10.dtd">
<svg version="1.0" xmlns="http://www.w3.org/2000/svg"
 width="900.000000pt" height="900.000000pt" viewBox="0 0 900.000000 900.000000"
 preserveAspectRatio="xMidYMid meet">
<metadata>
Created by potrace 1.14, written by Peter Selinger 2001-2017
</metadata>
<g transform="translate(0.000000,900.000000) scale(0.100000,-0.100000)"
fill="#000000" stroke="none">
<path d="M330 6331 l0 -741 438 0 c257 0 474 5 527 11 346 43 537 186 627 469
21 67 23 94 23 255 0 203 -8 248 -64 370 -84 181 -234 292 -466 346 -96 23
-118 24 -592 27 l-493 3 0 -740z m1045 585 c98 -23 221 -85 277 -142 104 -103
152 -242 151 -439 -1 -147 -21 -244 -70 -337 -45 -86 -121 -157 -216 -202
-136 -64 -243 -76 -694 -76 l-343 0 0 611 0 611 413 -5 c335 -3 425 -7 482
-21z"/>
<path d="M2559 6413 c-189 -362 -363 -695 -387 -740 l-43 -83 80 0 79 0 100
193 100 192 496 3 496 2 18 -29 c9 -16 55 -103 102 -195 l85 -166 78 0 c42 0
77 2 77 5 0 5 -670 1290 -735 1410 l-33 60 -84 3 -85 3 -344 -658z m651 90
c111 -212 199 -387 197 -389 -2 -2 -193 -3 -424 -2 l-420 3 210 403 c180 344
213 401 224 387 6 -10 102 -190 213 -402z"/>
<path d="M4120 6330 l0 -740 75 0 75 0 0 740 0 740 -75 0 -75 0 0 -740z"/>
<path d="M4760 6330 l0 -740 610 0 610 0 0 65 0 65 -540 0 -540 0 0 675 0 675
-70 0 -70 0 0 -740z"/>
<path d="M5780 7067 c0 -2 155 -195 345 -428 l345 -423 0 -313 0 -313 70 0 70
0 0 310 0 311 307 377 c168 207 324 398 345 423 21 25 38 48 38 52 0 4 -37 7
-82 7 l-83 0 -280 -346 c-154 -190 -287 -355 -296 -366 -15 -20 -26 -8 -314
346 l-298 366 -83 0 c-46 0 -84 -2 -84 -3z"/>
<path d="M7490 5710 l0 -120 95 0 95 0 0 120 0 120 -95 0 -95 0 0 -120z"/>
<path d="M330 4570 l0 -741 543 4 c595 4 616 6 737 67 145 74 211 217 188 406
-19 165 -112 261 -287 300 l-75 17 39 12 c101 30 159 77 197 160 19 41 23 67
22 145 0 83 -4 103 -28 158 -43 93 -109 146 -236 188 -50 16 -105 18 -577 22
l-523 3 0 -741z m1012 595 c155 -33 210 -85 216 -207 8 -139 -37 -207 -165
-250 -66 -22 -82 -22 -490 -26 l-423 -3 0 250 0 251 394 0 c317 0 409 -3 468
-15z m68 -637 c123 -32 204 -95 228 -177 7 -21 12 -74 12 -117 0 -95 -21 -147
-76 -192 -86 -71 -171 -81 -686 -82 l-408 0 0 296 0 296 438 -5 c341 -3 449
-7 492 -19z"/>
<path d="M2170 4571 l0 -741 75 0 75 0 0 315 0 315 360 0 360 0 236 -315 235
-315 91 0 c71 0 88 3 81 13 -6 6 -97 125 -203 262 -106 138 -215 278 -242 312
l-48 61 57 17 c139 40 220 104 271 213 25 52 27 68 27 177 0 111 -2 125 -29
182 -49 106 -139 172 -294 216 -73 20 -103 21 -564 25 l-488 3 0 -740z m974
585 c188 -35 256 -107 256 -270 0 -251 -119 -295 -802 -296 l-278 0 0 296 0
296 368 -5 c283 -3 387 -8 456 -21z"/>
<path d="M4372 4923 c-111 -213 -283 -543 -382 -732 -99 -189 -180 -347 -180
-352 0 -6 33 -9 76 -7 l76 3 100 193 100 192 496 0 497 0 101 -192 101 -193
76 -3 c43 -2 77 0 77 4 0 5 -144 281 -705 1354 l-60 115 -85 3 -85 3 -203
-388z m501 -162 c114 -220 207 -402 207 -405 0 -3 -189 -6 -420 -6 -231 0
-420 4 -420 8 0 5 52 107 115 228 63 120 157 299 207 397 51 97 95 177 98 177
3 0 98 -180 213 -399z"/>
<path d="M5798 4630 c-1 -374 -2 -706 -3 -737 l0 -58 73 -3 72 -3 0 741 0 740
-70 0 -70 0 -2 -680z"/>
<path d="M6430 4570 l0 -740 70 0 70 0 2 643 3 643 634 -643 635 -643 78 0 78
0 0 740 0 740 -70 0 -70 0 -2 -646 -3 -646 -634 646 -634 646 -79 0 -78 0 0
-740z"/>
<path d="M8350 3950 l0 -120 95 0 95 0 0 120 0 120 -95 0 -95 0 0 -120z"/>
<path d="M330 2810 l0 -740 75 0 75 0 0 284 0 285 443 4 c475 4 495 6 617 60
160 71 240 204 240 396 -1 201 -98 342 -276 401 -135 45 -192 49 -696 50
l-478 0 0 -740z m1048 586 c134 -28 217 -93 243 -190 6 -23 11 -76 11 -120 0
-67 -5 -87 -32 -143 -38 -76 -83 -113 -179 -145 -63 -21 -84 -23 -503 -26
l-438 -3 0 326 0 327 413 -5 c319 -4 428 -9 485 -21z"/>
<path d="M2130 2810 l0 -740 615 0 615 0 0 65 0 65 -540 0 -540 0 0 675 0 675
-75 0 -75 0 0 -740z"/>
<path d="M3982 3048 c-144 -277 -316 -606 -382 -731 -66 -126 -120 -233 -120
-238 0 -6 33 -9 76 -7 l76 3 100 193 101 192 496 0 496 0 101 -192 101 -193
76 -3 c43 -2 77 0 77 4 0 3 -172 337 -382 740 l-383 734 -85 0 -85 0 -263
-502z m561 -47 c114 -220 207 -402 207 -405 0 -3 -189 -6 -420 -6 -250 0 -420
4 -420 9 0 5 18 42 39 83 39 71 92 172 284 540 50 98 94 178 97 178 3 0 98
-180 213 -399z"/>
<path d="M5086 3538 c4 -7 54 -69 110 -138 56 -69 208 -255 338 -415 l236
-289 0 -313 0 -313 70 0 70 0 0 311 0 311 83 101 c371 455 607 747 607 752 0
3 -37 5 -83 5 l-82 0 -280 -346 c-154 -190 -287 -354 -296 -366 -17 -22 -9
-32 -423 480 l-189 232 -84 0 c-65 0 -82 -3 -77 -12z"/>
<path d="M6790 2190 l0 -120 95 0 95 0 0 120 0 120 -95 0 -95 0 0 -120z"/>
</g>
</svg>
